STARTFONT 2.1
FONT -AmsteinGraphics-DMCP-Bold-R-Normal--40-400-36-38-P-97-ISO10646-1
SIZE 7 173 173
FONTBOUNDINGBOX 12 24 0 -4
STARTPROPERTIES 30
FAMILY_NAME "DMCP"
DEFAULT_CHAR -1
FOUNDRY "AmsteinGraphics"
COPYRIGHT "Copyright (c) 2022 SwissMicros"
CODEPAGE "MS Windows 1252 Western (ANSI)"
ENC_MODE 2
ENC_ID 1
CREATION_YEAR 2022
WEIGHT_NAME "Bold"
SLANT "R"
SETWIDTH_NAME "Normal"
SPACING "P"
WEIGHT 700
HI_VERSION 1
MAC_FONT_STYLE 1
CP_RANGE_1 65535
CP_RANGE_2 65535
FONTNAME_REGISTRY "-"
CHARSET_REGISTRY "ISO10646"
CHARSET_ENCODING "1"
BREAK_CHAR 32
PIXEL_SIZE 16
POINT_SIZE 70
FONT_ASCENT 16
FONT_DESCENT 4
RESOLUTION_X 173
RESOLUTION_Y 173
AVERAGE_WIDTH 97
X_HEIGHT 11
CAP_HEIGHT 15
ENDPROPERTIES
CHARS 289
STARTCHAR space.uni0020
ENCODING 32
SWIDTH 568 0
DWIDTH 12 0
BBX 0 0 0 0
BITMAP
ENDCHAR
STARTCHAR exclam.uni0021
ENCODING 33
SWIDTH 568 0
DWIDTH 12 0
BBX 3 15 5 0
BITMAP
E000
E000
E000
E000
E000
E000
E000
E000
E000
E000
0000
0000
E000
E000
E000
ENDCHAR
STARTCHAR quotedbl.uni0022
ENCODING 34
SWIDTH 568 0
DWIDTH 12 0
BBX 9 6 2 9
BITMAP
E380
E380
E380
E380
E380
E380
ENDCHAR
STARTCHAR numbersign.uni0023
ENCODING 35
SWIDTH 568 0
DWIDTH 12 0
BBX 12 15 0 0
BITMAP
0660
0660
0CC0
0CC0
7FF0
7FF0
1980
1980
1980
FFE0
FFE0
3300
3300
6600
6600
ENDCHAR
STARTCHAR dollar.uni0024
ENCODING 36
SWIDTH 568 0
DWIDTH 12 0
BBX 9 19 1 -3
BITMAP
0800
0800
3E00
7F00
EB00
E800
E800
F800
7E00
3F00
0F80
0B80
8B80
CB80
FF00
7E00
0800
0800
0800
ENDCHAR
STARTCHAR percent.uni0025
ENCODING 37
SWIDTH 568 0
DWIDTH 12 0
BBX 12 15 0 0
BITMAP
7800
7800
CC00
CC00
CC00
7820
79C0
0600
39E0
41E0
0330
0330
0330
01E0
01E0
ENDCHAR
STARTCHAR ampersand.uni0026
ENCODING 38
SWIDTH 568 0
DWIDTH 12 0
BBX 12 15 0 0
BITMAP
0F00
3F80
3880
3800
3C00
1C00
3E00
7E30
E730
E3B0
E3F0
E1E0
F1E0
7FE0
1F70
ENDCHAR
STARTCHAR quotesingle.uni0027
ENCODING 39
SWIDTH 568 0
DWIDTH 12 0
BBX 3 6 5 9
BITMAP
E000
E000
E000
E000
E000
E000
ENDCHAR
STARTCHAR parenleft.uni0028
ENCODING 40
SWIDTH 568 0
DWIDTH 12 0
BBX 5 19 4 -3
BITMAP
1800
3000
3000
7000
7000
6000
E000
E000
E000
E000
E000
E000
E000
6000
7000
7000
3000
3000
1800
ENDCHAR
STARTCHAR parenright.uni0029
ENCODING 41
SWIDTH 568 0
DWIDTH 12 0
BBX 5 19 4 -3
BITMAP
C000
6000
6000
7000
7000
3000
3800
3800
3800
3800
3800
3800
3800
3000
7000
7000
6000
6000
C000
ENDCHAR
STARTCHAR asterisk.uni002A
ENCODING 42
SWIDTH 568 0
DWIDTH 12 0
BBX 10 10 1 5
BITMAP
0C00
0C00
CCC0
FFC0
3F00
3F00
FFC0
CCC0
0C00
0C00
ENDCHAR
STARTCHAR plus.uni002B
ENCODING 43
SWIDTH 568 0
DWIDTH 12 0
BBX 10 10 1 1
BITMAP
0C00
0C00
0C00
0C00
FFC0
FFC0
0C00
0C00
0C00
0C00
ENDCHAR
STARTCHAR comma.uni002C
ENCODING 44
SWIDTH 568 0
DWIDTH 12 0
BBX 4 7 4 -3
BITMAP
7000
7000
7000
7000
6000
E000
C000
ENDCHAR
STARTCHAR hyphen.uni002D
ENCODING 45
SWIDTH 568 0
DWIDTH 12 0
BBX 6 3 3 5
BITMAP
FC00
FC00
FC00
ENDCHAR
STARTCHAR period.uni002E
ENCODING 46
SWIDTH 568 0
DWIDTH 12 0
BBX 3 4 4 0
BITMAP
E000
E000
E000
E000
ENDCHAR
STARTCHAR slash.uni002F
ENCODING 47
SWIDTH 568 0
DWIDTH 12 0
BBX 10 17 1 -2
BITMAP
00C0
0180
0180
0300
0300
0600
0600
0C00
0C00
1800
1800
3000
3000
6000
6000
C000
C000
ENDCHAR
STARTCHAR zero.uni0030
ENCODING 48
SWIDTH 568 0
DWIDTH 12 0
BBX 10 15 1 0
BITMAP
1E00
3F00
7380
6180
E3C0
E7C0
EFC0
FDC0
F9C0
F1C0
E1C0
6180
7380
3F00
1E00
ENDCHAR
STARTCHAR one.uni0031
ENCODING 49
SWIDTH 568 0
DWIDTH 12 0
BBX 9 15 2 0
BITMAP
3C00
FC00
DC00
1C00
1C00
1C00
1C00
1C00
1C00
1C00
1C00
1C00
1C00
FF80
FF80
ENDCHAR
STARTCHAR two.uni0032
ENCODING 50
SWIDTH 568 0
DWIDTH 12 0
BBX 10 15 1 0
BITMAP
7E00
FF80
C3C0
81C0
01C0
01C0
0380
0700
0E00
1E00
3C00
7800
7000
FFC0
FFC0
ENDCHAR
STARTCHAR three.uni0033
ENCODING 51
SWIDTH 568 0
DWIDTH 12 0
BBX 10 15 1 0
BITMAP
7F00
FF80
C1C0
81C0
01C0
1F00
1F00
0380
01C0
01C0
01C0
81C0
C3C0
FF80
7E00
ENDCHAR
STARTCHAR four.uni0034
ENCODING 52
SWIDTH 568 0
DWIDTH 12 0
BBX 10 15 1 0
BITMAP
0700
0F00
0F00
1F00
3F00
3700
6700
6700
C700
FFC0
FFC0
0700
0700
0700
0700
ENDCHAR
STARTCHAR five.uni0035
ENCODING 53
SWIDTH 568 0
DWIDTH 12 0
BBX 10 15 1 0
BITMAP
FF80
FF80
E000
E000
E000
FE00
FF80
8380
01C0
01C0
01C0
01C0
C380
FF80
7E00
ENDCHAR
STARTCHAR six.uni0036
ENCODING 54
SWIDTH 568 0
DWIDTH 12 0
BBX 10 15 1 0
BITMAP
1F00
3F80
7080
7000
E000
EF00
FF80
F3C0
E1C0
E1C0
E1C0
E1C0
7380
7F80
1F00
ENDCHAR
STARTCHAR seven.uni0037
ENCODING 55
SWIDTH 568 0
DWIDTH 12 0
BBX 10 15 1 0
BITMAP
FFC0
FFC0
01C0
0380
0380
0700
0700
0F00
0E00
1E00
1C00
1C00
3800
3800
7000
ENDCHAR
STARTCHAR eight.uni0038
ENCODING 56
SWIDTH 568 0
DWIDTH 12 0
BBX 10 15 1 0
BITMAP
3F00
7F80
F3C0
E1C0
E1C0
7380
3F00
3F00
7380
E1C0
E1C0
E1C0
F3C0
7F80
3F00
ENDCHAR
STARTCHAR nine.uni0039
ENCODING 57
SWIDTH 568 0
DWIDTH 12 0
BBX 10 15 1 0
BITMAP
3E00
7F80
F380
E1C0
E1C0
E1C0
E1C0
F3C0
7FC0
3DC0
01C0
0380
4380
7F00
3E00
ENDCHAR
STARTCHAR colon.uni003A
ENCODING 58
SWIDTH 568 0
DWIDTH 12 0
BBX 3 11 4 0
BITMAP
E000
E000
E000
E000
0000
0000
0000
E000
E000
E000
E000
ENDCHAR
STARTCHAR semicolon.uni003B
ENCODING 59
SWIDTH 568 0
DWIDTH 12 0
BBX 4 14 3 -3
BITMAP
7000
7000
7000
7000
0000
0000
0000
7000
7000
7000
7000
6000
E000
C000
ENDCHAR
STARTCHAR less.uni003C
ENCODING 60
SWIDTH 568 0
DWIDTH 12 0
BBX 10 11 1 1
BITMAP
0040
01C0
0FC0
3F00
F800
E000
F800
3F00
0FC0
03C0
0040
ENDCHAR
STARTCHAR equal.uni003D
ENCODING 61
SWIDTH 568 0
DWIDTH 12 0
BBX 10 6 1 3
BITMAP
FFC0
FFC0
0000
0000
FFC0
FFC0
ENDCHAR
STARTCHAR greater.uni003E
ENCODING 62
SWIDTH 568 0
DWIDTH 12 0
BBX 10 11 1 1
BITMAP
8000
E000
FC00
3F00
07C0
01C0
07C0
3F00
FC00
F000
8000
ENDCHAR
STARTCHAR question.uni003F
ENCODING 63
SWIDTH 568 0
DWIDTH 12 0
BBX 8 15 2 0
BITMAP
7C00
FF00
8700
0700
0700
0E00
1C00
3800
3800
3800
3800
0000
3800
3800
3800
ENDCHAR
STARTCHAR at.uni0040
ENCODING 64
SWIDTH 568 0
DWIDTH 12 0
BBX 11 18 0 -4
BITMAP
0F80
1FC0
38E0
7060
63E0
C7E0
CEE0
CC60
CC60
CC60
CC60
CEE0
E7E0
63E0
7000
3840
1FE0
07C0
ENDCHAR
STARTCHAR A.uni0041
ENCODING 65
SWIDTH 568 0
DWIDTH 12 0
BBX 10 15 1 0
BITMAP
1E00
1E00
1E00
1E00
3F00
3F00
3300
3300
7380
7F80
7F80
7380
6180
E1C0
E1C0
ENDCHAR
STARTCHAR B.uni0042
ENCODING 66
SWIDTH 568 0
DWIDTH 12 0
BBX 10 15 1 0
BITMAP
FE00
FF00
E380
E380
E380
E380
FF00
FF00
E380
E1C0
E1C0
E1C0
E3C0
FF80
FF00
ENDCHAR
STARTCHAR C.uni0043
ENCODING 67
SWIDTH 568 0
DWIDTH 12 0
BBX 10 15 1 0
BITMAP
0F80
3FC0
78C0
7000
E000
E000
E000
E000
E000
E000
E000
7000
78C0
3FC0
0F80
ENDCHAR
STARTCHAR D.uni0044
ENCODING 68
SWIDTH 568 0
DWIDTH 12 0
BBX 10 15 1 0
BITMAP
FC00
FF00
E380
E380
E1C0
E1C0
E1C0
E1C0
E1C0
E1C0
E1C0
E380
E380
FF00
FC00
ENDCHAR
STARTCHAR E.uni0045
ENCODING 69
SWIDTH 568 0
DWIDTH 12 0
BBX 10 15 1 0
BITMAP
FFC0
FFC0
E000
E000
E000
E000
FF80
FF80
E000
E000
E000
E000
E000
FFC0
FFC0
ENDCHAR
STARTCHAR F.uni0046
ENCODING 70
SWIDTH 568 0
DWIDTH 12 0
BBX 10 15 1 0
BITMAP
FFC0
FFC0
E000
E000
E000
E000
FF80
FF80
E000
E000
E000
E000
E000
E000
E000
ENDCHAR
STARTCHAR G.uni0047
ENCODING 71
SWIDTH 568 0
DWIDTH 12 0
BBX 10 15 1 0
BITMAP
1F00
3F80
7080
7000
E000
E000
E000
E7C0
E7C0
E1C0
E1C0
71C0
71C0
3FC0
1F80
ENDCHAR
STARTCHAR H.uni0048
ENCODING 72
SWIDTH 568 0
DWIDTH 12 0
BBX 10 15 1 0
BITMAP
E1C0
E1C0
E1C0
E1C0
E1C0
E1C0
FFC0
FFC0
E1C0
E1C0
E1C0
E1C0
E1C0
E1C0
E1C0
ENDCHAR
STARTCHAR I.uni0049
ENCODING 73
SWIDTH 568 0
DWIDTH 12 0
BBX 9 15 2 0
BITMAP
FF80
FF80
1C00
1C00
1C00
1C00
1C00
1C00
1C00
1C00
1C00
1C00
1C00
FF80
FF80
ENDCHAR
STARTCHAR J.uni004A
ENCODING 74
SWIDTH 568 0
DWIDTH 12 0
BBX 10 15 1 0
BITMAP
1FC0
1FC0
01C0
01C0
01C0
01C0
01C0
01C0
01C0
01C0
01C0
81C0
C3C0
FF80
7F00
ENDCHAR
STARTCHAR K.uni004B
ENCODING 75
SWIDTH 568 0
DWIDTH 12 0
BBX 11 15 1 0
BITMAP
E1C0
E3C0
E380
E700
EE00
FC00
FC00
FE00
FF00
E700
E780
E380
E3C0
E1C0
E1E0
ENDCHAR
STARTCHAR L.uni004C
ENCODING 76
SWIDTH 568 0
DWIDTH 12 0
BBX 10 15 1 0
BITMAP
E000
E000
E000
E000
E000
E000
E000
E000
E000
E000
E000
E000
E000
FFC0
FFC0
ENDCHAR
STARTCHAR M.uni004D
ENCODING 77
SWIDTH 568 0
DWIDTH 12 0
BBX 10 15 1 0
BITMAP
E1C0
E1C0
F3C0
F3C0
F3C0
FFC0
EFC0
EDC0
EDC0
E1C0
E1C0
E1C0
E1C0
E1C0
E1C0
ENDCHAR
STARTCHAR N.uni004E
ENCODING 78
SWIDTH 568 0
DWIDTH 12 0
BBX 10 15 1 0
BITMAP
F1C0
F1C0
F1C0
F9C0
F9C0
F9C0
EDC0
EDC0
EDC0
E7C0
E7C0
E7C0
E3C0
E3C0
E3C0
ENDCHAR
STARTCHAR O.uni004F
ENCODING 79
SWIDTH 568 0
DWIDTH 12 0
BBX 10 15 1 0
BITMAP
1E00
3F00
7380
6180
E1C0
E1C0
E1C0
E1C0
E1C0
E1C0
E1C0
6180
7380
3F00
1E00
ENDCHAR
STARTCHAR P.uni0050
ENCODING 80
SWIDTH 568 0
DWIDTH 12 0
BBX 10 15 1 0
BITMAP
FE00
FF80
E3C0
E1C0
E1C0
E1C0
E1C0
E3C0
FF80
FE00
E000
E000
E000
E000
E000
ENDCHAR
STARTCHAR Q.uni0051
ENCODING 81
SWIDTH 568 0
DWIDTH 12 0
BBX 10 18 1 -3
BITMAP
1E00
3F00
7380
6180
E1C0
E1C0
E1C0
E1C0
E1C0
E1C0
E1C0
61C0
7380
3F80
1F00
0380
0380
0100
ENDCHAR
STARTCHAR R.uni0052
ENCODING 82
SWIDTH 568 0
DWIDTH 12 0
BBX 11 15 1 0
BITMAP
FF00
FF80
E3C0
E1C0
E1C0
E1C0
E3C0
FF80
FF00
E780
E380
E1C0
E1C0
E1C0
E0E0
ENDCHAR
STARTCHAR S.uni0053
ENCODING 83
SWIDTH 568 0
DWIDTH 12 0
BBX 10 15 1 0
BITMAP
3F00
7F80
F180
E080
E000
F800
7E00
3F80
0F80
03C0
01C0
81C0
C3C0
FF80
7F00
ENDCHAR
STARTCHAR T.uni0054
ENCODING 84
SWIDTH 568 0
DWIDTH 12 0
BBX 11 15 1 0
BITMAP
FFE0
FFE0
0E00
0E00
0E00
0E00
0E00
0E00
0E00
0E00
0E00
0E00
0E00
0E00
0E00
ENDCHAR
STARTCHAR U.uni0055
ENCODING 85
SWIDTH 568 0
DWIDTH 12 0
BBX 10 15 1 0
BITMAP
E1C0
E1C0
E1C0
E1C0
E1C0
E1C0
E1C0
E1C0
E1C0
E1C0
E1C0
E1C0
F3C0
7F80
3F00
ENDCHAR
STARTCHAR V.uni0056
ENCODING 86
SWIDTH 568 0
DWIDTH 12 0
BBX 10 15 1 0
BITMAP
E1C0
E1C0
6180
7380
7380
7380
7380
3300
3300
3F00
3F00
3F00
1E00
1E00
1E00
ENDCHAR
STARTCHAR W.uni0057
ENCODING 87
SWIDTH 568 0
DWIDTH 12 0
BBX 12 15 0 0
BITMAP
E070
E070
E070
E070
6660
6760
6F60
6F60
6F60
6F60
79E0
79E0
79E0
39C0
38C0
ENDCHAR
STARTCHAR X.uni0058
ENCODING 88
SWIDTH 568 0
DWIDTH 12 0
BBX 10 15 1 0
BITMAP
E1C0
7380
7380
3F00
3F00
1E00
1E00
0C00
1E00
1E00
3F00
3F00
7380
7380
E1C0
ENDCHAR
STARTCHAR Y.uni0059
ENCODING 89
SWIDTH 568 0
DWIDTH 12 0
BBX 11 15 0 0
BITMAP
E0E0
E0E0
E1E0
71C0
7BC0
3B80
1F00
1F00
0E00
0E00
0E00
0E00
0E00
0E00
0E00
ENDCHAR
STARTCHAR Z.uni005A
ENCODING 90
SWIDTH 568 0
DWIDTH 12 0
BBX 10 15 1 0
BITMAP
FFC0
FFC0
01C0
0380
0780
0700
0E00
1E00
1C00
3800
7800
7000
E000
FFC0
FFC0
ENDCHAR
STARTCHAR bracketleft.uni005B
ENCODING 91
SWIDTH 568 0
DWIDTH 12 0
BBX 5 19 4 -3
BITMAP
F800
F800
E000
E000
E000
E000
E000
E000
E000
E000
E000
E000
E000
E000
E000
E000
E000
F800
F800
ENDCHAR
STARTCHAR backslash.uni005C
ENCODING 92
SWIDTH 568 0
DWIDTH 12 0
BBX 10 17 1 -2
BITMAP
C000
6000
6000
3000
3000
1800
1800
0C00
0C00
0600
0600
0300
0300
0180
0180
00C0
00C0
ENDCHAR
STARTCHAR bracketright.uni005D
ENCODING 93
SWIDTH 568 0
DWIDTH 12 0
BBX 5 19 3 -3
BITMAP
F800
F800
3800
3800
3800
3800
3800
3800
3800
3800
3800
3800
3800
3800
3800
3800
3800
F800
F800
ENDCHAR
STARTCHAR asciicircum.uni005E
ENCODING 94
SWIDTH 568 0
DWIDTH 12 0
BBX 11 6 1 9
BITMAP
0E00
1F00
1F00
3B80
71C0
E0E0
ENDCHAR
STARTCHAR underscore.uni005F
ENCODING 95
SWIDTH 568 0
DWIDTH 12 0
BBX 12 2 0 -4
BITMAP
FFF0
FFF0
ENDCHAR
STARTCHAR grave.uni0060
ENCODING 96
SWIDTH 568 0
DWIDTH 12 0
BBX 6 4 2 13
BITMAP
E000
7000
3800
1C00
ENDCHAR
STARTCHAR a.uni0061
ENCODING 97
SWIDTH 568 0
DWIDTH 12 0
BBX 10 11 1 0
BITMAP
3F00
7F80
41C0
01C0
3FC0
7FC0
E1C0
E1C0
E3C0
7FC0
3DC0
ENDCHAR
STARTCHAR b.uni0062
ENCODING 98
SWIDTH 568 0
DWIDTH 12 0
BBX 10 16 1 0
BITMAP
E000
E000
E000
E000
E000
EF00
FF80
F3C0
E1C0
E1C0
E1C0
E1C0
E1C0
F3C0
FF80
EF00
ENDCHAR
STARTCHAR c.uni0063
ENCODING 99
SWIDTH 568 0
DWIDTH 12 0
BBX 10 11 1 0
BITMAP
1F80
3FC0
7040
E000
E000
E000
E000
E000
7040
3FC0
1F80
ENDCHAR
STARTCHAR d.uni0064
ENCODING 100
SWIDTH 568 0
DWIDTH 12 0
BBX 10 16 1 0
BITMAP
01C0
01C0
01C0
01C0
01C0
3DC0
7FC0
F3C0
E1C0
E1C0
E1C0
E1C0
E1C0
F3C0
7FC0
3DC0
ENDCHAR
STARTCHAR e.uni0065
ENCODING 101
SWIDTH 568 0
DWIDTH 12 0
BBX 10 11 1 0
BITMAP
1E00
7F80
7380
E1C0
FFC0
FFC0
E000
E000
7040
7FC0
1F80
ENDCHAR
STARTCHAR f.uni0066
ENCODING 102
SWIDTH 568 0
DWIDTH 12 0
BBX 9 16 1 0
BITMAP
0F80
1F80
1C00
1C00
1C00
FF80
FF80
1C00
1C00
1C00
1C00
1C00
1C00
1C00
1C00
1C00
ENDCHAR
STARTCHAR g.uni0067
ENCODING 103
SWIDTH 568 0
DWIDTH 12 0
BBX 10 15 1 -4
BITMAP
3DC0
7FC0
73C0
E1C0
E1C0
E1C0
E1C0
E1C0
73C0
7FC0
3DC0
01C0
43C0
7F80
3F00
ENDCHAR
STARTCHAR h.uni0068
ENCODING 104
SWIDTH 568 0
DWIDTH 12 0
BBX 10 16 1 0
BITMAP
E000
E000
E000
E000
E000
EF00
FF80
F1C0
E1C0
E1C0
E1C0
E1C0
E1C0
E1C0
E1C0
E1C0
ENDCHAR
STARTCHAR i.uni0069
ENCODING 105
SWIDTH 568 0
DWIDTH 12 0
BBX 11 17 1 0
BITMAP
0E00
0E00
0E00
0E00
0000
0000
7E00
7E00
0E00
0E00
0E00
0E00
0E00
0E00
0E00
FFE0
FFE0
ENDCHAR
STARTCHAR j.uni006A
ENCODING 106
SWIDTH 568 0
DWIDTH 12 0
BBX 7 21 1 -4
BITMAP
0E00
0E00
0E00
0E00
0000
0000
7E00
7E00
0E00
0E00
0E00
0E00
0E00
0E00
0E00
0E00
0E00
0E00
0E00
FC00
F800
ENDCHAR
STARTCHAR k.uni006B
ENCODING 107
SWIDTH 568 0
DWIDTH 12 0
BBX 10 16 1 0
BITMAP
E000
E000
E000
E000
E000
E380
E700
EE00
FC00
FC00
FE00
EE00
E700
E700
E380
E1C0
ENDCHAR
STARTCHAR l.uni006C
ENCODING 108
SWIDTH 568 0
DWIDTH 12 0
BBX 10 16 1 0
BITMAP
FC00
FC00
1C00
1C00
1C00
1C00
1C00
1C00
1C00
1C00
1C00
1C00
1C00
1C00
0FC0
07C0
ENDCHAR
STARTCHAR m.uni006D
ENCODING 109
SWIDTH 568 0
DWIDTH 12 0
BBX 10 11 1 0
BITMAP
FB80
FFC0
EDC0
EDC0
EDC0
EDC0
EDC0
EDC0
EDC0
EDC0
EDC0
ENDCHAR
STARTCHAR n.uni006E
ENCODING 110
SWIDTH 568 0
DWIDTH 12 0
BBX 10 11 1 0
BITMAP
EF00
FF80
F1C0
E1C0
E1C0
E1C0
E1C0
E1C0
E1C0
E1C0
E1C0
ENDCHAR
STARTCHAR o.uni006F
ENCODING 111
SWIDTH 568 0
DWIDTH 12 0
BBX 10 11 1 0
BITMAP
1E00
7F80
7380
E1C0
E1C0
E1C0
E1C0
E1C0
7380
7F80
1E00
ENDCHAR
STARTCHAR p.uni0070
ENCODING 112
SWIDTH 568 0
DWIDTH 12 0
BBX 10 15 1 -4
BITMAP
EF00
FF80
F3C0
E1C0
E1C0
E1C0
E1C0
E1C0
F3C0
FF80
EF00
E000
E000
E000
E000
ENDCHAR
STARTCHAR q.uni0071
ENCODING 113
SWIDTH 568 0
DWIDTH 12 0
BBX 10 15 1 -4
BITMAP
3DC0
7FC0
F3C0
E1C0
E1C0
E1C0
E1C0
E1C0
F3C0
7FC0
3DC0
01C0
01C0
01C0
01C0
ENDCHAR
STARTCHAR r.uni0072
ENCODING 114
SWIDTH 568 0
DWIDTH 12 0
BBX 8 11 3 0
BITMAP
EE00
FF00
F100
E000
E000
E000
E000
E000
E000
E000
E000
ENDCHAR
STARTCHAR s.uni0073
ENCODING 115
SWIDTH 568 0
DWIDTH 12 0
BBX 10 11 1 0
BITMAP
3F00
7F80
E080
E000
FE00
7F80
0FC0
01C0
81C0
FF80
7F00
ENDCHAR
STARTCHAR t.uni0074
ENCODING 116
SWIDTH 568 0
DWIDTH 12 0
BBX 10 14 1 0
BITMAP
1C00
1C00
1C00
FFC0
FFC0
1C00
1C00
1C00
1C00
1C00
1C00
1C00
1FC0
0FC0
ENDCHAR
STARTCHAR u.uni0075
ENCODING 117
SWIDTH 568 0
DWIDTH 12 0
BBX 10 11 1 0
BITMAP
E1C0
E1C0
E1C0
E1C0
E1C0
E1C0
E1C0
E1C0
E3C0
7FC0
3DC0
ENDCHAR
STARTCHAR v.uni0076
ENCODING 118
SWIDTH 568 0
DWIDTH 12 0
BBX 10 11 1 0
BITMAP
E1C0
E1C0
7380
7380
7380
3300
3F00
3F00
1E00
1E00
1E00
ENDCHAR
STARTCHAR w.uni0077
ENCODING 119
SWIDTH 568 0
DWIDTH 12 0
BBX 12 11 0 0
BITMAP
C030
E070
E070
6660
6F60
6F60
6F60
7FE0
39C0
39C0
39C0
ENDCHAR
STARTCHAR x.uni0078
ENCODING 120
SWIDTH 568 0
DWIDTH 12 0
BBX 10 11 1 0
BITMAP
F3C0
7380
3300
3F00
1E00
1E00
1E00
3F00
3300
7380
F3C0
ENDCHAR
STARTCHAR y.uni0079
ENCODING 121
SWIDTH 568 0
DWIDTH 12 0
BBX 10 15 1 -4
BITMAP
E1C0
71C0
7380
7380
3B80
3B00
3F00
1F00
1E00
0E00
0E00
1C00
1C00
7800
7800
ENDCHAR
STARTCHAR z.uni007A
ENCODING 122
SWIDTH 568 0
DWIDTH 12 0
BBX 10 11 1 0
BITMAP
FFC0
FFC0
03C0
0780
0F00
1E00
3C00
7800
F000
FFC0
FFC0
ENDCHAR
STARTCHAR braceleft.uni007B
ENCODING 123
SWIDTH 568 0
DWIDTH 12 0
BBX 9 19 2 -3
BITMAP
0F80
1F80
1C00
1C00
1C00
1C00
1C00
1C00
3C00
F800
F800
3C00
1C00
1C00
1C00
1C00
1C00
1F80
0F80
ENDCHAR
STARTCHAR bar.uni007C
ENCODING 124
SWIDTH 568 0
DWIDTH 12 0
BBX 2 20 5 -4
BITMAP
C000
C000
C000
C000
C000
C000
C000
C000
C000
C000
C000
C000
C000
C000
C000
C000
C000
C000
C000
C000
ENDCHAR
STARTCHAR braceright.uni007D
ENCODING 125
SWIDTH 568 0
DWIDTH 12 0
BBX 9 19 2 -3
BITMAP
F800
FC00
1C00
1C00
1C00
1C00
1C00
1C00
1E00
0F80
0F80
1E00
1C00
1C00
1C00
1C00
1C00
FC00
F800
ENDCHAR
STARTCHAR asciitilde.uni007E
ENCODING 126
SWIDTH 568 0
DWIDTH 12 0
BBX 10 3 1 5
BITMAP
7840
FFC0
8780
ENDCHAR
STARTCHAR nbsp.uni00A0
ENCODING 160
SWIDTH 568 0
DWIDTH 12 0
BBX 0 0 0 0
BITMAP
ENDCHAR
STARTCHAR exclamdown.uni00A1
ENCODING 161
SWIDTH 568 0
DWIDTH 12 0
BBX 3 15 5 0
BITMAP
E000
E000
E000
0000
0000
E000
E000
E000
E000
E000
E000
E000
E000
E000
E000
ENDCHAR
STARTCHAR cent.uni00A2
ENCODING 162
SWIDTH 568 0
DWIDTH 12 0
BBX 9 17 1 -3
BITMAP
0200
0200
0200
1F00
3F80
7280
E200
E200
E200
E200
E200
7280
3F80
0F00
0200
0200
0200
ENDCHAR
STARTCHAR sterling.uni00A3
ENCODING 163
SWIDTH 568 0
DWIDTH 12 0
BBX 10 15 1 0
BITMAP
0F80
1FC0
3C40
3800
3800
3800
3800
FF00
FF00
3800
3800
3800
3800
FFC0
FFC0
ENDCHAR
STARTCHAR currency.uni00A4
ENCODING 164
SWIDTH 568 0
DWIDTH 12 0
BBX 9 9 2 2
BITMAP
8080
5D00
3E00
6300
6300
6300
3E00
5D00
8080
ENDCHAR
STARTCHAR yen.uni00A5
ENCODING 165
SWIDTH 568 0
DWIDTH 12 0
BBX 11 15 0 0
BITMAP
E0E0
E0E0
71C0
71C0
3B80
FBE0
FFE0
1F00
0E00
FFE0
FFE0
0E00
0E00
0E00
0E00
ENDCHAR
STARTCHAR brokenbar.uni00A6
ENCODING 166
SWIDTH 568 0
DWIDTH 12 0
BBX 2 19 5 -4
BITMAP
C000
C000
C000
C000
C000
C000
C000
C000
0000
0000
0000
C000
C000
C000
C000
C000
C000
C000
C000
ENDCHAR
STARTCHAR section.uni00A7
ENCODING 167
SWIDTH 568 0
DWIDTH 12 0
BBX 9 17 2 -2
BITMAP
1E00
7F00
7100
7000
7000
3800
7E00
E780
E380
7380
3F00
0E00
0700
0700
4700
7F00
3E00
ENDCHAR
STARTCHAR dieresis.uni00A8
ENCODING 168
SWIDTH 568 0
DWIDTH 12 0
BBX 6 3 3 13
BITMAP
CC00
CC00
CC00
ENDCHAR
STARTCHAR copyright.uni00A9
ENCODING 169
SWIDTH 568 0
DWIDTH 12 0
BBX 12 12 0 2
BITMAP
0F00
30C0
4020
4F20
9C10
9810
9810
9C10
4F20
4020
30C0
0F00
ENDCHAR
STARTCHAR ordfeminine.uni00AA
ENCODING 170
SWIDTH 568 0
DWIDTH 12 0
BBX 7 11 3 4
BITMAP
7C00
7E00
0600
7E00
C600
CE00
FE00
7600
0000
7E00
7E00
ENDCHAR
STARTCHAR guillemotleft.uni00AB
ENCODING 171
SWIDTH 568 0
DWIDTH 12 0
BBX 10 9 1 2
BITMAP
0840
18C0
39C0
E700
C600
E700
39C0
18C0
0840
ENDCHAR
STARTCHAR logicalnot.uni00AC
ENCODING 172
SWIDTH 568 0
DWIDTH 12 0
BBX 10 6 1 3
BITMAP
FFC0
FFC0
00C0
00C0
00C0
00C0
ENDCHAR
STARTCHAR hyphensoft.uni00AD
ENCODING 173
SWIDTH 568 0
DWIDTH 12 0
BBX 6 3 3 5
BITMAP
FC00
FC00
FC00
ENDCHAR
STARTCHAR registered.uni00AE
ENCODING 174
SWIDTH 568 0
DWIDTH 12 0
BBX 12 12 0 2
BITMAP
0F00
30C0
4020
5F20
9990
9990
9F10
9990
59A0
4020
30C0
0F00
ENDCHAR
STARTCHAR macron.uni00AF
ENCODING 175
SWIDTH 568 0
DWIDTH 12 0
BBX 6 2 3 14
BITMAP
FC00
FC00
ENDCHAR
STARTCHAR degree.uni00B0
ENCODING 176
SWIDTH 568 0
DWIDTH 12 0
BBX 7 7 3 8
BITMAP
3800
7C00
C600
C600
C600
7C00
3800
ENDCHAR
STARTCHAR plusminus.uni00B1
ENCODING 177
SWIDTH 568 0
DWIDTH 12 0
BBX 10 14 1 0
BITMAP
0C00
0C00
0C00
0C00
FFC0
FFC0
0C00
0C00
0C00
0C00
0000
0000
FFC0
FFC0
ENDCHAR
STARTCHAR twosuperior.uni00B2
ENCODING 178
SWIDTH 568 0
DWIDTH 12 0
BBX 6 9 3 7
BITMAP
7800
8C00
0C00
0C00
1800
3000
6000
C000
FC00
ENDCHAR
STARTCHAR threesuperior.uni00B3
ENCODING 179
SWIDTH 568 0
DWIDTH 12 0
BBX 7 9 3 7
BITMAP
7C00
8600
0600
0600
3800
0600
0600
8600
7C00
ENDCHAR
STARTCHAR acute.uni00B4
ENCODING 180
SWIDTH 568 0
DWIDTH 12 0
BBX 6 4 5 13
BITMAP
1C00
3800
7000
E000
ENDCHAR
STARTCHAR micro.uni00B5
ENCODING 181
SWIDTH 568 0
DWIDTH 12 0
BBX 11 15 1 -4
BITMAP
E1C0
E1C0
E1C0
E1C0
E1C0
E1C0
E1C0
E1C0
F3C0
FFE0
FEE0
E000
E000
E000
E000
ENDCHAR
STARTCHAR paragraph.uni00B6
ENCODING 182
SWIDTH 568 0
DWIDTH 12 0
BBX 10 17 1 -2
BITMAP
3FC0
7FC0
FCC0
FCC0
FCC0
FCC0
FCC0
7CC0
1CC0
0CC0
0CC0
0CC0
0CC0
0CC0
0CC0
0CC0
0CC0
ENDCHAR
STARTCHAR periodcentered.uni00B7
ENCODING 183
SWIDTH 568 0
DWIDTH 12 0
BBX 3 4 4 5
BITMAP
E000
E000
E000
E000
ENDCHAR
STARTCHAR cedilla.uni00B8
ENCODING 184
SWIDTH 568 0
DWIDTH 12 0
BBX 5 4 3 -4
BITMAP
1000
1800
F800
F000
ENDCHAR
STARTCHAR onesuperior.uni00B9
ENCODING 185
SWIDTH 568 0
DWIDTH 12 0
BBX 6 9 3 7
BITMAP
F000
3000
3000
3000
3000
3000
3000
3000
FC00
ENDCHAR
STARTCHAR ordmasculine.uni00BA
ENCODING 186
SWIDTH 568 0
DWIDTH 12 0
BBX 7 11 3 4
BITMAP
3800
7C00
C600
C600
C600
C600
7C00
3800
0000
FE00
FE00
ENDCHAR
STARTCHAR guillemotright.uni00BB
ENCODING 187
SWIDTH 568 0
DWIDTH 12 0
BBX 10 9 2 2
BITMAP
8400
C600
E700
39C0
18C0
39C0
E700
C600
8400
ENDCHAR
STARTCHAR onequarter.uni00BC
ENCODING 188
SWIDTH 568 0
DWIDTH 12 0
BBX 11 21 0 -3
BITMAP
F000
3000
3000
3000
3000
3000
3000
3000
FC00
0060
0380
1C00
E0C0
01C0
03C0
06C0
04C0
08C0
0FE0
00C0
00C0
ENDCHAR
STARTCHAR onehalf.uni00BD
ENCODING 189
SWIDTH 568 0
DWIDTH 12 0
BBX 11 21 0 -3
BITMAP
F000
3000
3000
3000
3000
3000
3000
3000
FC00
0060
0380
1C00
E3C0
0460
0060
0060
00C0
0180
0300
0600
07E0
ENDCHAR
STARTCHAR threequarters.uni00BE
ENCODING 190
SWIDTH 568 0
DWIDTH 12 0
BBX 11 21 0 -3
BITMAP
3E00
4300
0300
0300
1C00
0300
0300
4300
3E00
0060
0380
1C00
E0C0
01C0
03C0
06C0
04C0
08C0
0FE0
00C0
00C0
ENDCHAR
STARTCHAR questiondown.uni00BF
ENCODING 191
SWIDTH 568 0
DWIDTH 12 0
BBX 8 15 2 0
BITMAP
1C00
1C00
1C00
0000
1C00
1C00
1C00
1C00
3800
7000
E000
E000
E100
FF00
3E00
ENDCHAR
STARTCHAR Agrave.uni00C0
ENCODING 192
SWIDTH 568 0
DWIDTH 12 0
BBX 10 20 1 0
BITMAP
3800
1C00
0E00
0000
0000
1E00
1E00
1E00
1E00
3F00
3F00
3300
3300
7380
7F80
7F80
7380
6180
E1C0
E1C0
ENDCHAR
STARTCHAR Aacute.uni00C1
ENCODING 193
SWIDTH 568 0
DWIDTH 12 0
BBX 10 20 1 0
BITMAP
0380
0700
0E00
0000
0000
1E00
1E00
1E00
1E00
3F00
3F00
3300
3300
7380
7F80
7F80
7380
6180
E1C0
E1C0
ENDCHAR
STARTCHAR Acircumflex.uni00C2
ENCODING 194
SWIDTH 568 0
DWIDTH 12 0
BBX 10 20 1 0
BITMAP
1C00
3600
6300
0000
0000
1E00
1E00
1E00
1E00
3F00
3F00
3300
3300
7380
7F80
7F80
7380
6180
E1C0
E1C0
ENDCHAR
STARTCHAR Atilde.uni00C3
ENCODING 195
SWIDTH 568 0
DWIDTH 12 0
BBX 10 20 1 0
BITMAP
1C80
3F80
2700
0000
0000
1E00
1E00
1E00
1E00
3F00
3F00
3300
3300
7380
7F80
7F80
7380
6180
E1C0
E1C0
ENDCHAR
STARTCHAR Adieresis.uni00C4
ENCODING 196
SWIDTH 568 0
DWIDTH 12 0
BBX 10 20 1 0
BITMAP
3300
3300
3300
0000
0000
1E00
1E00
1E00
1E00
3F00
3F00
3300
3300
7380
7F80
7F80
7380
6180
E1C0
E1C0
ENDCHAR
STARTCHAR Aring.uni00C5
ENCODING 197
SWIDTH 568 0
DWIDTH 12 0
BBX 10 20 1 0
BITMAP
0C00
1E00
1200
1E00
0C00
0000
0C00
0C00
1E00
1E00
1E00
3F00
3F00
3300
3F00
7F80
7380
6180
E1C0
E1C0
ENDCHAR
STARTCHAR AE.uni00C6
ENCODING 198
SWIDTH 568 0
DWIDTH 12 0
BBX 12 15 0 0
BITMAP
1FF0
1FF0
1B80
1B80
3B80
3B80
33F0
33F0
3380
7F80
7F80
6380
6380
E3F0
E3F0
ENDCHAR
STARTCHAR Ccedilla.uni00C7
ENCODING 199
SWIDTH 568 0
DWIDTH 12 0
BBX 10 19 1 -4
BITMAP
0F80
3FC0
78C0
7000
E000
E000
E000
E000
E000
E000
E000
7000
78C0
3FC0
0F80
0200
0300
1F00
1E00
ENDCHAR
STARTCHAR Egrave.uni00C8
ENCODING 200
SWIDTH 568 0
DWIDTH 12 0
BBX 10 20 1 0
BITMAP
3800
1C00
0E00
0000
0000
FFC0
FFC0
E000
E000
E000
E000
FF80
FF80
E000
E000
E000
E000
E000
FFC0
FFC0
ENDCHAR
STARTCHAR Eacute.uni00C9
ENCODING 201
SWIDTH 568 0
DWIDTH 12 0
BBX 10 20 1 0
BITMAP
0380
0700
0E00
0000
0000
FFC0
FFC0
E000
E000
E000
E000
FF80
FF80
E000
E000
E000
E000
E000
FFC0
FFC0
ENDCHAR
STARTCHAR Ecircumflex.uni00CA
ENCODING 202
SWIDTH 568 0
DWIDTH 12 0
BBX 10 20 1 0
BITMAP
1C00
3600
6300
0000
0000
FFC0
FFC0
E000
E000
E000
E000
FF80
FF80
E000
E000
E000
E000
E000
FFC0
FFC0
ENDCHAR
STARTCHAR Edieresis.uni00CB
ENCODING 203
SWIDTH 568 0
DWIDTH 12 0
BBX 10 20 1 0
BITMAP
3300
3300
3300
0000
0000
FFC0
FFC0
E000
E000
E000
E000
FF80
FF80
E000
E000
E000
E000
E000
FFC0
FFC0
ENDCHAR
STARTCHAR Igrave.uni00CC
ENCODING 204
SWIDTH 568 0
DWIDTH 12 0
BBX 9 20 2 0
BITMAP
7000
3800
1C00
0000
0000
FF80
FF80
1C00
1C00
1C00
1C00
1C00
1C00
1C00
1C00
1C00
1C00
1C00
FF80
FF80
ENDCHAR
STARTCHAR Iacute.uni00CD
ENCODING 205
SWIDTH 568 0
DWIDTH 12 0
BBX 9 20 2 0
BITMAP
0700
0E00
1C00
0000
0000
FF80
FF80
1C00
1C00
1C00
1C00
1C00
1C00
1C00
1C00
1C00
1C00
1C00
FF80
FF80
ENDCHAR
STARTCHAR Icircumflex.uni00CE
ENCODING 206
SWIDTH 568 0
DWIDTH 12 0
BBX 9 20 2 0
BITMAP
3800
6C00
C600
0000
0000
FF80
FF80
1C00
1C00
1C00
1C00
1C00
1C00
1C00
1C00
1C00
1C00
1C00
FF80
FF80
ENDCHAR
STARTCHAR Idieresis.uni00CF
ENCODING 207
SWIDTH 568 0
DWIDTH 12 0
BBX 9 20 2 0
BITMAP
6600
6600
6600
0000
0000
FF80
FF80
1C00
1C00
1C00
1C00
1C00
1C00
1C00
1C00
1C00
1C00
1C00
FF80
FF80
ENDCHAR
STARTCHAR Eth.uni00D0
ENCODING 208
SWIDTH 568 0
DWIDTH 12 0
BBX 11 15 0 0
BITMAP
7E00
7F80
71C0
71C0
70E0
70E0
FCE0
FCE0
70E0
70E0
70E0
71C0
71C0
7F80
7E00
ENDCHAR
STARTCHAR Ntilde.uni00D1
ENCODING 209
SWIDTH 568 0
DWIDTH 12 0
BBX 10 20 1 0
BITMAP
1C80
3F80
2700
0000
0000
F1C0
F1C0
F1C0
F9C0
F9C0
F9C0
EDC0
EDC0
EDC0
E7C0
E7C0
E7C0
E3C0
E3C0
E3C0
ENDCHAR
STARTCHAR Ograve.uni00D2
ENCODING 210
SWIDTH 568 0
DWIDTH 12 0
BBX 10 20 1 0
BITMAP
3800
1C00
0E00
0000
0000
1E00
3F00
7380
6180
E1C0
E1C0
E1C0
E1C0
E1C0
E1C0
E1C0
6180
7380
3F00
1E00
ENDCHAR
STARTCHAR Oacute.uni00D3
ENCODING 211
SWIDTH 568 0
DWIDTH 12 0
BBX 10 20 1 0
BITMAP
0380
0700
0E00
0000
0000
1E00
3F00
7380
6180
E1C0
E1C0
E1C0
E1C0
E1C0
E1C0
E1C0
6180
7380
3F00
1E00
ENDCHAR
STARTCHAR Ocircumflex.uni00D4
ENCODING 212
SWIDTH 568 0
DWIDTH 12 0
BBX 10 20 1 0
BITMAP
1C00
3600
6300
0000
0000
1E00
3F00
7380
6180
E1C0
E1C0
E1C0
E1C0
E1C0
E1C0
E1C0
6180
7380
3F00
1E00
ENDCHAR
STARTCHAR Otilde.uni00D5
ENCODING 213
SWIDTH 568 0
DWIDTH 12 0
BBX 10 20 1 0
BITMAP
1C80
3F80
2700
0000
0000
1E00
3F00
7380
6180
E1C0
E1C0
E1C0
E1C0
E1C0
E1C0
E1C0
6180
7380
3F00
1E00
ENDCHAR
STARTCHAR Odieresis.uni00D6
ENCODING 214
SWIDTH 568 0
DWIDTH 12 0
BBX 10 20 1 0
BITMAP
3300
3300
3300
0000
0000
1E00
3F00
7380
6180
E1C0
E1C0
E1C0
E1C0
E1C0
E1C0
E1C0
6180
7380
3F00
1E00
ENDCHAR
STARTCHAR multiply.uni00D7
ENCODING 215
SWIDTH 568 0
DWIDTH 12 0
BBX 10 10 1 2
BITMAP
4080
E1C0
7380
3F00
1E00
1E00
3F00
7380
E1C0
4080
ENDCHAR
STARTCHAR Oslash.uni00D8
ENCODING 216
SWIDTH 568 0
DWIDTH 12 0
BBX 12 15 0 0
BITMAP
0F70
1FE0
39C0
31E0
71E0
73E0
77E0
76E0
7CE0
7CE0
78E0
78C0
39C0
7F80
CF00
ENDCHAR
STARTCHAR Ugrave.uni00D9
ENCODING 217
SWIDTH 568 0
DWIDTH 12 0
BBX 10 20 1 0
BITMAP
3800
1C00
0E00
0000
0000
E1C0
E1C0
E1C0
E1C0
E1C0
E1C0
E1C0
E1C0
E1C0
E1C0
E1C0
E1C0
F3C0
7F80
3F00
ENDCHAR
STARTCHAR Uacute.uni00DA
ENCODING 218
SWIDTH 568 0
DWIDTH 12 0
BBX 10 20 1 0
BITMAP
0380
0700
0E00
0000
0000
E1C0
E1C0
E1C0
E1C0
E1C0
E1C0
E1C0
E1C0
E1C0
E1C0
E1C0
E1C0
F3C0
7F80
3F00
ENDCHAR
STARTCHAR Ucircumflex.uni00DB
ENCODING 219
SWIDTH 568 0
DWIDTH 12 0
BBX 10 20 1 0
BITMAP
1C00
3600
6300
0000
0000
E1C0
E1C0
E1C0
E1C0
E1C0
E1C0
E1C0
E1C0
E1C0
E1C0
E1C0
E1C0
F3C0
7F80
3F00
ENDCHAR
STARTCHAR Udieresis.uni00DC
ENCODING 220
SWIDTH 568 0
DWIDTH 12 0
BBX 10 20 1 0
BITMAP
3300
3300
3300
0000
0000
E1C0
E1C0
E1C0
E1C0
E1C0
E1C0
E1C0
E1C0
E1C0
E1C0
E1C0
E1C0
F3C0
7F80
3F00
ENDCHAR
STARTCHAR Yacute.uni00DD
ENCODING 221
SWIDTH 568 0
DWIDTH 12 0
BBX 11 20 0 0
BITMAP
0380
0700
0E00
0000
0000
E0E0
E0E0
E1E0
71C0
7BC0
3B80
1F00
1F00
0E00
0E00
0E00
0E00
0E00
0E00
0E00
ENDCHAR
STARTCHAR Thorn.uni00DE
ENCODING 222
SWIDTH 568 0
DWIDTH 12 0
BBX 10 15 1 0
BITMAP
E000
E000
FF00
FF80
E3C0
E1C0
E1C0
E1C0
E3C0
FF80
FF00
E000
E000
E000
E000
ENDCHAR
STARTCHAR germandbls.uni00DF
ENCODING 223
SWIDTH 568 0
DWIDTH 12 0
BBX 10 16 1 0
BITMAP
3E00
7F00
F180
E180
E780
EE00
EE00
EE00
EF00
E780
E3C0
E1C0
E1C0
E9C0
EF80
E700
ENDCHAR
STARTCHAR agrave.uni00E0
ENCODING 224
SWIDTH 568 0
DWIDTH 12 0
BBX 10 17 1 0
BITMAP
7000
3800
1C00
0E00
0000
0000
3F00
7F80
41C0
01C0
3FC0
7FC0
E1C0
E1C0
E3C0
7FC0
3DC0
ENDCHAR
STARTCHAR aacute.uni00E1
ENCODING 225
SWIDTH 568 0
DWIDTH 12 0
BBX 10 17 1 0
BITMAP
01C0
0380
0700
0E00
0000
0000
3F00
7F80
41C0
01C0
3FC0
7FC0
E1C0
E1C0
E3C0
7FC0
3DC0
ENDCHAR
STARTCHAR acircumflex.uni00E2
ENCODING 226
SWIDTH 568 0
DWIDTH 12 0
BBX 10 17 1 0
BITMAP
1C00
3E00
3600
6300
0000
0000
3F00
7F80
41C0
01C0
3FC0
7FC0
E1C0
E1C0
E3C0
7FC0
3DC0
ENDCHAR
STARTCHAR atilde.uni00E3
ENCODING 227
SWIDTH 568 0
DWIDTH 12 0
BBX 10 16 1 0
BITMAP
1C80
3F80
2700
0000
0000
3F00
7F80
41C0
01C0
3FC0
7FC0
E1C0
E1C0
E3C0
7FC0
3DC0
ENDCHAR
STARTCHAR adieresis.uni00E4
ENCODING 228
SWIDTH 568 0
DWIDTH 12 0
BBX 10 16 1 0
BITMAP
3300
3300
3300
0000
0000
3F00
7F80
41C0
01C0
3FC0
7FC0
E1C0
E1C0
E3C0
7FC0
3DC0
ENDCHAR
STARTCHAR aring.uni00E5
ENCODING 229
SWIDTH 568 0
DWIDTH 12 0
BBX 10 19 1 0
BITMAP
1E00
3F00
3300
3300
3F00
1E00
0000
0000
3F00
7F80
41C0
01C0
3FC0
7FC0
E1C0
E1C0
E3C0
7FC0
3DC0
ENDCHAR
STARTCHAR ae.uni00E6
ENCODING 230
SWIDTH 568 0
DWIDTH 12 0
BBX 12 11 0 0
BITMAP
3DE0
7FE0
4730
0730
3FF0
7FF0
C700
C700
C710
FDF0
7CE0
ENDCHAR
STARTCHAR ccedilla.uni00E7
ENCODING 231
SWIDTH 568 0
DWIDTH 12 0
BBX 10 15 1 -4
BITMAP
1F80
3FC0
7040
E000
E000
E000
E000
E000
7040
3FC0
1F80
0200
0300
1F00
1E00
ENDCHAR
STARTCHAR egrave.uni00E8
ENCODING 232
SWIDTH 568 0
DWIDTH 12 0
BBX 10 17 1 0
BITMAP
7000
3800
1C00
0E00
0000
0000
1E00
7F80
7380
E1C0
FFC0
FFC0
E000
E000
7040
7FC0
1F80
ENDCHAR
STARTCHAR eacute.uni00E9
ENCODING 233
SWIDTH 568 0
DWIDTH 12 0
BBX 10 17 1 0
BITMAP
01C0
0380
0700
0E00
0000
0000
1E00
7F80
7380
E1C0
FFC0
FFC0
E000
E000
7040
7FC0
1F80
ENDCHAR
STARTCHAR ecircumflex.uni00EA
ENCODING 234
SWIDTH 568 0
DWIDTH 12 0
BBX 10 17 1 0
BITMAP
1C00
3E00
3600
6300
0000
0000
1E00
7F80
7380
E1C0
FFC0
FFC0
E000
E000
7040
7FC0
1F80
ENDCHAR
STARTCHAR edieresis.uni00EB
ENCODING 235
SWIDTH 568 0
DWIDTH 12 0
BBX 10 16 1 0
BITMAP
3300
3300
3300
0000
0000
1E00
7F80
7380
E1C0
FFC0
FFC0
E000
E000
7040
7FC0
1F80
ENDCHAR
STARTCHAR igrave.uni00EC
ENCODING 236
SWIDTH 568 0
DWIDTH 12 0
BBX 11 17 1 0
BITMAP
7000
3800
1C00
0E00
0000
0000
7E00
7E00
0E00
0E00
0E00
0E00
0E00
0E00
0E00
FFE0
FFE0
ENDCHAR
STARTCHAR iacute.uni00ED
ENCODING 237
SWIDTH 568 0
DWIDTH 12 0
BBX 11 17 1 0
BITMAP
01C0
0380
0700
0E00
0000
0000
7E00
7E00
0E00
0E00
0E00
0E00
0E00
0E00
0E00
FFE0
FFE0
ENDCHAR
STARTCHAR icircumflex.uni00EE
ENCODING 238
SWIDTH 568 0
DWIDTH 12 0
BBX 11 17 1 0
BITMAP
1C00
3E00
3600
6300
0000
0000
7E00
7E00
0E00
0E00
0E00
0E00
0E00
0E00
0E00
FFE0
FFE0
ENDCHAR
STARTCHAR idieresis.uni00EF
ENCODING 239
SWIDTH 568 0
DWIDTH 12 0
BBX 11 16 1 0
BITMAP
3300
3300
3300
0000
0000
7E00
7E00
0E00
0E00
0E00
0E00
0E00
0E00
0E00
FFE0
FFE0
ENDCHAR
STARTCHAR eth.uni00F0
ENCODING 240
SWIDTH 568 0
DWIDTH 12 0
BBX 10 16 1 0
BITMAP
3980
1F00
3E00
6600
0700
3F80
7F80
71C0
E1C0
E1C0
E1C0
E1C0
E1C0
7380
7F80
1E00
ENDCHAR
STARTCHAR ntilde.uni00F1
ENCODING 241
SWIDTH 568 0
DWIDTH 12 0
BBX 10 16 1 0
BITMAP
1C80
3F80
2700
0000
0000
EF00
FF80
F1C0
E1C0
E1C0
E1C0
E1C0
E1C0
E1C0
E1C0
E1C0
ENDCHAR
STARTCHAR ograve.uni00F2
ENCODING 242
SWIDTH 568 0
DWIDTH 12 0
BBX 10 16 1 0
BITMAP
3800
1C00
0E00
0000
0000
1E00
7F80
7380
E1C0
E1C0
E1C0
E1C0
E1C0
7380
7F80
1E00
ENDCHAR
STARTCHAR oacute.uni00F3
ENCODING 243
SWIDTH 568 0
DWIDTH 12 0
BBX 10 16 1 0
BITMAP
0380
0700
0E00
0000
0000
1E00
7F80
7380
E1C0
E1C0
E1C0
E1C0
E1C0
7380
7F80
1E00
ENDCHAR
STARTCHAR ocircumflex.uni00F4
ENCODING 244
SWIDTH 568 0
DWIDTH 12 0
BBX 10 16 1 0
BITMAP
1C00
3E00
7300
0000
0000
1E00
7F80
7380
E1C0
E1C0
E1C0
E1C0
E1C0
7380
7F80
1E00
ENDCHAR
STARTCHAR otilde.uni00F5
ENCODING 245
SWIDTH 568 0
DWIDTH 12 0
BBX 10 16 1 0
BITMAP
1980
3F80
2700
0000
0000
1E00
7F80
7380
E1C0
E1C0
E1C0
E1C0
E1C0
7380
7F80
1E00
ENDCHAR
STARTCHAR odieresis.uni00F6
ENCODING 246
SWIDTH 568 0
DWIDTH 12 0
BBX 10 16 1 0
BITMAP
3300
3300
3300
0000
0000
1E00
7F80
7380
E1C0
E1C0
E1C0
E1C0
E1C0
7380
7F80
1E00
ENDCHAR
STARTCHAR divide.uni00F7
ENCODING 247
SWIDTH 568 0
DWIDTH 12 0
BBX 11 10 1 1
BITMAP
0E00
0E00
0E00
0000
FFE0
FFE0
0000
0E00
0E00
0E00
ENDCHAR
STARTCHAR oslash.uni00F8
ENCODING 248
SWIDTH 568 0
DWIDTH 12 0
BBX 10 13 1 -1
BITMAP
0040
1EC0
7F80
7380
E7C0
E7C0
EDC0
F9C0
F9C0
7380
7F80
DE00
8000
ENDCHAR
STARTCHAR ugrave.uni00F9
ENCODING 249
SWIDTH 568 0
DWIDTH 12 0
BBX 10 17 1 0
BITMAP
7000
3800
1C00
0E00
0000
0000
E1C0
E1C0
E1C0
E1C0
E1C0
E1C0
E1C0
E1C0
E3C0
7FC0
3DC0
ENDCHAR
STARTCHAR uacute.uni00FA
ENCODING 250
SWIDTH 568 0
DWIDTH 12 0
BBX 10 17 1 0
BITMAP
01C0
0380
0700
0E00
0000
0000
E1C0
E1C0
E1C0
E1C0
E1C0
E1C0
E1C0
E1C0
E3C0
7FC0
3DC0
ENDCHAR
STARTCHAR ucircumflex.uni00FB
ENCODING 251
SWIDTH 568 0
DWIDTH 12 0
BBX 10 17 1 0
BITMAP
1C00
3E00
3600
6300
0000
0000
E1C0
E1C0
E1C0
E1C0
E1C0
E1C0
E1C0
E1C0
E3C0
7FC0
3DC0
ENDCHAR
STARTCHAR udieresis.uni00FC
ENCODING 252
SWIDTH 568 0
DWIDTH 12 0
BBX 10 16 1 0
BITMAP
3300
3300
3300
0000
0000
E1C0
E1C0
E1C0
E1C0
E1C0
E1C0
E1C0
E1C0
E3C0
7FC0
3DC0
ENDCHAR
STARTCHAR yacute.uni00FD
ENCODING 253
SWIDTH 568 0
DWIDTH 12 0
BBX 10 21 1 -4
BITMAP
01C0
0380
0700
0E00
0000
0000
E1C0
71C0
7380
7380
3B80
3B00
3F00
1F00
1E00
0E00
0E00
1C00
1C00
7800
7800
ENDCHAR
STARTCHAR thorn.uni00FE
ENCODING 254
SWIDTH 568 0
DWIDTH 12 0
BBX 10 20 1 -4
BITMAP
E000
E000
E000
E000
E000
EF00
FF80
F3C0
E1C0
E1C0
E1C0
E1C0
E1C0
F3C0
FF80
EF00
E000
E000
E000
E000
ENDCHAR
STARTCHAR ydieresis.uni00FF
ENCODING 255
SWIDTH 568 0
DWIDTH 12 0
BBX 10 20 1 -4
BITMAP
3300
3300
3300
0000
0000
E1C0
71C0
7380
7380
3B80
3B00
3F00
1F00
1E00
0E00
0E00
1C00
1C00
7800
7800
ENDCHAR
STARTCHAR Cacute.uni0106
ENCODING 262
SWIDTH 568 0
DWIDTH 12 0
BBX 10 20 1 0
BITMAP
01C0
0380
0700
0000
0000
0F80
3FC0
78C0
7000
E000
E000
E000
E000
E000
E000
E000
7000
78C0
3FC0
0F80
ENDCHAR
STARTCHAR cacute.uni0107
ENCODING 263
SWIDTH 568 0
DWIDTH 12 0
BBX 11 17 1 0
BITMAP
00E0
01C0
0380
0700
0000
0000
1F80
3FC0
7040
E000
E000
E000
E000
E000
7040
3FC0
1F80
ENDCHAR
STARTCHAR Ccaron.uni010C
ENCODING 268
SWIDTH 568 0
DWIDTH 12 0
BBX 10 20 1 0
BITMAP
3180
1B00
0E00
0000
0000
0F80
3FC0
78C0
7000
E000
E000
E000
E000
E000
E000
E000
7000
78C0
3FC0
0F80
ENDCHAR
STARTCHAR ccaron.uni010D
ENCODING 269
SWIDTH 568 0
DWIDTH 12 0
BBX 10 17 1 0
BITMAP
3180
1B00
1F00
0E00
0000
0000
1F80
3FC0
7040
E000
E000
E000
E000
E000
7040
3FC0
1F80
ENDCHAR
STARTCHAR dcroat.uni0111
ENCODING 273
SWIDTH 568 0
DWIDTH 12 0
BBX 11 16 1 0
BITMAP
01C0
01C0
0FE0
0FE0
01C0
3DC0
7FC0
F3C0
E1C0
E1C0
E1C0
E1C0
E1C0
F3C0
7FC0
3DC0
ENDCHAR
STARTCHAR Gbreve.uni011E
ENCODING 286
SWIDTH 568 0
DWIDTH 12 0
BBX 10 19 1 0
BITMAP
3180
1F00
0000
0000
1F00
3F80
7080
7000
E000
E000
E000
E7C0
E7C0
E1C0
E1C0
71C0
71C0
3FC0
1F80
ENDCHAR
STARTCHAR gbreve.uni011F
ENCODING 287
SWIDTH 568 0
DWIDTH 12 0
BBX 10 20 1 -4
BITMAP
3180
3F80
1F00
0000
0000
3DC0
7FC0
73C0
E1C0
E1C0
E1C0
E1C0
E1C0
73C0
7FC0
3DC0
01C0
43C0
7F80
3F00
ENDCHAR
STARTCHAR Idotaccent.uni0130
ENCODING 304
SWIDTH 568 0
DWIDTH 12 0
BBX 9 20 2 0
BITMAP
1C00
1C00
1C00
0000
0000
FF80
FF80
1C00
1C00
1C00
1C00
1C00
1C00
1C00
1C00
1C00
1C00
1C00
FF80
FF80
ENDCHAR
STARTCHAR dotlessi.uni0131
ENCODING 305
SWIDTH 568 0
DWIDTH 12 0
BBX 11 11 1 0
BITMAP
7E00
7E00
0E00
0E00
0E00
0E00
0E00
0E00
0E00
FFE0
FFE0
ENDCHAR
STARTCHAR Lslash.uni0141
ENCODING 321
SWIDTH 568 0
DWIDTH 12 0
BBX 11 15 0 0
BITMAP
7000
7000
7000
7000
7700
7F00
7C00
7800
F000
F000
F000
7000
7000
7FE0
7FE0
ENDCHAR
STARTCHAR lslash.uni0142
ENCODING 322
SWIDTH 568 0
DWIDTH 12 0
BBX 10 16 1 0
BITMAP
FC00
FC00
1C00
1C80
1FC0
1F00
1E00
3C00
7C00
FC00
DC00
1C00
1C00
1C00
0FC0
07C0
ENDCHAR
STARTCHAR OE.uni0152
ENCODING 338
SWIDTH 568 0
DWIDTH 12 0
BBX 10 15 1 0
BITMAP
3FC0
7FC0
7700
E700
E700
E700
E7C0
E7C0
E700
E700
E700
E700
7700
7FC0
3FC0
ENDCHAR
STARTCHAR oe.uni0153
ENCODING 339
SWIDTH 568 0
DWIDTH 12 0
BBX 12 11 0 0
BITMAP
3DE0
7FE0
C730
C730
C7F0
C7F0
C700
C700
C710
7FF0
3CE0
ENDCHAR
STARTCHAR Scedilla.uni015E
ENCODING 350
SWIDTH 568 0
DWIDTH 12 0
BBX 10 19 1 -4
BITMAP
3F00
7F80
F180
E080
E000
F800
7E00
3F80
0F80
03C0
01C0
81C0
C3C0
FF80
7F00
0400
0600
3E00
3C00
ENDCHAR
STARTCHAR scedilla.uni015F
ENCODING 351
SWIDTH 568 0
DWIDTH 12 0
BBX 10 15 1 -4
BITMAP
3F00
7F80
E080
E000
FE00
7F80
0FC0
01C0
81C0
FF80
7F00
0400
0600
3E00
3C00
ENDCHAR
STARTCHAR Scaron.uni0160
ENCODING 352
SWIDTH 568 0
DWIDTH 12 0
BBX 10 20 1 0
BITMAP
6300
3600
1C00
0000
0000
3F00
7F80
F180
E080
E000
F800
7E00
3F80
0F80
03C0
01C0
81C0
C3C0
FF80
7F00
ENDCHAR
STARTCHAR scaron.uni0161
ENCODING 353
SWIDTH 568 0
DWIDTH 12 0
BBX 10 17 1 0
BITMAP
6300
3600
3E00
1C00
0000
0000
3F00
7F80
E080
E000
FE00
7F80
0FC0
01C0
81C0
FF80
7F00
ENDCHAR
STARTCHAR Ydieresis.uni0178
ENCODING 376
SWIDTH 568 0
DWIDTH 12 0
BBX 11 20 0 0
BITMAP
3180
3180
3180
0000
0000
E0E0
E0E0
E1E0
71C0
7BC0
3B80
1F00
1F00
0E00
0E00
0E00
0E00
0E00
0E00
0E00
ENDCHAR
STARTCHAR Zcaron.uni017D
ENCODING 381
SWIDTH 568 0
DWIDTH 12 0
BBX 10 20 1 0
BITMAP
6300
3600
1C00
0000
0000
FFC0
FFC0
01C0
0380
0780
0700
0E00
1E00
1C00
3800
7800
7000
E000
FFC0
FFC0
ENDCHAR
STARTCHAR zcaron.uni017E
ENCODING 382
SWIDTH 568 0
DWIDTH 12 0
BBX 10 17 1 0
BITMAP
6300
3600
3E00
1C00
0000
0000
FFC0
FFC0
03C0
0780
0F00
1E00
3C00
7800
F000
FFC0
FFC0
ENDCHAR
STARTCHAR florin.uni0192
ENCODING 402
SWIDTH 568 0
DWIDTH 12 0
BBX 11 19 0 -4
BITMAP
01C0
03E0
0780
0700
0700
0700
3FC0
3FC0
0E00
0E00
0E00
0E00
0E00
0E00
0E00
1C00
1C00
FC00
7000
ENDCHAR
STARTCHAR circumflex.uni02C6
ENCODING 710
SWIDTH 568 0
DWIDTH 12 0
BBX 7 4 2 13
BITMAP
3800
7C00
6C00
C600
ENDCHAR
STARTCHAR caron.uni02C7
ENCODING 711
SWIDTH 568 0
DWIDTH 12 0
BBX 7 4 2 13
BITMAP
C600
6C00
7C00
3800
ENDCHAR
STARTCHAR breve.uni02D8
ENCODING 728
SWIDTH 568 0
DWIDTH 12 0
BBX 7 3 3 13
BITMAP
C600
FE00
7C00
ENDCHAR
STARTCHAR dotaccent.uni02D9
ENCODING 729
SWIDTH 568 0
DWIDTH 12 0
BBX 3 3 5 13
BITMAP
E000
E000
E000
ENDCHAR
STARTCHAR ring.uni02DA
ENCODING 730
SWIDTH 568 0
DWIDTH 12 0
BBX 6 6 3 13
BITMAP
7800
FC00
CC00
CC00
FC00
7800
ENDCHAR
STARTCHAR ogonek.uni02DB
ENCODING 731
SWIDTH 568 0
DWIDTH 12 0
BBX 4 4 4 -4
BITMAP
4000
C000
F000
7000
ENDCHAR
STARTCHAR tilde.uni02DC
ENCODING 732
SWIDTH 568 0
DWIDTH 12 0
BBX 7 3 3 13
BITMAP
7200
FE00
9C00
ENDCHAR
STARTCHAR hungarumlaut.uni02DD
ENCODING 733
SWIDTH 568 0
DWIDTH 12 0
BBX 7 4 3 13
BITMAP
7600
6C00
4800
D800
ENDCHAR
STARTCHAR Omega.uni03A9
ENCODING 937
SWIDTH 568 0
DWIDTH 12 0
BBX 10 15 1 0
BITMAP
1E00
3F00
7F80
7380
E1C0
E1C0
E1C0
E1C0
E1C0
E1C0
7380
7380
3300
F3C0
F3C0
ENDCHAR
STARTCHAR pi.uni03C0
ENCODING 960
SWIDTH 568 0
DWIDTH 12 0
BBX 12 11 0 0
BITMAP
FFF0
FFF0
FFF0
39C0
39C0
39C0
39C0
39C0
39C0
39F0
38F0
ENDCHAR
STARTCHAR endash.uni2013
ENCODING 8211
SWIDTH 568 0
DWIDTH 12 0
BBX 8 3 2 4
BITMAP
FF00
FF00
FF00
ENDCHAR
STARTCHAR emdash.uni2014
ENCODING 8212
SWIDTH 568 0
DWIDTH 12 0
BBX 10 3 1 4
BITMAP
FFC0
FFC0
FFC0
ENDCHAR
STARTCHAR quoteleft.uni2018
ENCODING 8216
SWIDTH 568 0
DWIDTH 12 0
BBX 4 7 4 9
BITMAP
3000
7000
6000
E000
E000
E000
E000
ENDCHAR
STARTCHAR quoteright.uni2019
ENCODING 8217
SWIDTH 568 0
DWIDTH 12 0
BBX 4 7 4 9
BITMAP
7000
7000
7000
7000
6000
E000
C000
ENDCHAR
STARTCHAR quotesinglbase.uni201A
ENCODING 8218
SWIDTH 568 0
DWIDTH 12 0
BBX 4 7 4 -3
BITMAP
7000
7000
7000
7000
6000
E000
C000
ENDCHAR
STARTCHAR quotedblleft.uni201C
ENCODING 8220
SWIDTH 568 0
DWIDTH 12 0
BBX 9 7 2 9
BITMAP
3180
7380
6300
E700
E700
E700
E700
ENDCHAR
STARTCHAR quotedblright.uni201D
ENCODING 8221
SWIDTH 568 0
DWIDTH 12 0
BBX 9 7 2 9
BITMAP
7380
7380
7380
7380
6300
E700
C600
ENDCHAR
STARTCHAR quotedblbase.uni201E
ENCODING 8222
SWIDTH 568 0
DWIDTH 12 0
BBX 9 7 2 -3
BITMAP
7380
7380
7380
7380
6300
E700
C600
ENDCHAR
STARTCHAR dagger.uni2020
ENCODING 8224
SWIDTH 568 0
DWIDTH 12 0
BBX 9 17 2 -2
BITMAP
1C00
1C00
1C00
1C00
FF80
FF80
1C00
1C00
1C00
1C00
1C00
1C00
1C00
1C00
1C00
1C00
1C00
ENDCHAR
STARTCHAR daggerdbl.uni2021
ENCODING 8225
SWIDTH 568 0
DWIDTH 12 0
BBX 9 17 2 -2
BITMAP
1C00
1C00
1C00
1C00
FF80
FF80
1C00
1C00
1C00
1C00
1C00
FF80
FF80
1C00
1C00
1C00
1C00
ENDCHAR
STARTCHAR bullet.uni2022
ENCODING 8226
SWIDTH 568 0
DWIDTH 12 0
BBX 7 7 3 4
BITMAP
3800
7C00
FE00
FE00
FE00
7C00
3800
ENDCHAR
STARTCHAR ellipsis.uni2026
ENCODING 8230
SWIDTH 568 0
DWIDTH 12 0
BBX 11 4 1 0
BITMAP
EEE0
EEE0
EEE0
EEE0
ENDCHAR
STARTCHAR perthousand.uni2030
ENCODING 8240
SWIDTH 568 0
DWIDTH 12 0
BBX 12 15 0 0
BITMAP
7800
FC00
CC00
CC00
FC00
78E0
0700
3800
0000
79E0
FFF0
CF30
CF30
FFF0
79E0
ENDCHAR
STARTCHAR guilsinglleft.uni2039
ENCODING 8249
SWIDTH 568 0
DWIDTH 12 0
BBX 5 9 3 2
BITMAP
0800
1800
3800
7000
E000
7000
3800
1800
0800
ENDCHAR
STARTCHAR guilsinglright.uni203A
ENCODING 8250
SWIDTH 568 0
DWIDTH 12 0
BBX 5 9 4 2
BITMAP
8000
C000
E000
7000
3800
7000
E000
C000
8000
ENDCHAR
STARTCHAR Euro.uni20AC
ENCODING 8364
SWIDTH 568 0
DWIDTH 12 0
BBX 11 15 0 0
BITMAP
07C0
0FE0
1E20
1C00
3800
7FC0
FF80
3800
3800
7F00
FE00
3800
1C20
0FE0
07C0
ENDCHAR
STARTCHAR trademark.uni2122
ENCODING 8482
SWIDTH 568 0
DWIDTH 12 0
BBX 9 6 1 9
BITMAP
E880
4D80
4A80
4880
4880
4880
ENDCHAR
STARTCHAR partialdiff.uni2202
ENCODING 8706
SWIDTH 568 0
DWIDTH 12 0
BBX 9 14 1 0
BITMAP
1E00
3900
0100
0180
0180
3D80
6580
E380
C380
C380
C300
C700
4600
3C00
ENDCHAR
STARTCHAR Delta.uni2206
ENCODING 8710
SWIDTH 568 0
DWIDTH 12 0
BBX 12 15 0 0
BITMAP
0600
0600
0F00
0F00
0F00
1F80
1F80
1980
39C0
39C0
30C0
70E0
70E0
7FE0
FFF0
ENDCHAR
STARTCHAR Pi.uni03A0
ENCODING 928
SWIDTH 568 0
DWIDTH 12 0
BBX 10 15 1 0
BITMAP
FFC0
FFC0
E1C0
E1C0
E1C0
E1C0
E1C0
E1C0
E1C0
E1C0
E1C0
E1C0
E1C0
E1C0
E1C0
ENDCHAR
STARTCHAR summation.uni2211
ENCODING 8721
SWIDTH 568 0
DWIDTH 12 0
BBX 10 20 1 -4
BITMAP
FFC0
FFC0
6000
7000
3800
3800
1C00
0C00
0E00
0700
0600
0E00
0C00
1C00
3800
3800
7000
6000
FFC0
FFC0
ENDCHAR
STARTCHAR minus.uni2212
ENCODING 8722
SWIDTH 568 0
DWIDTH 12 0
BBX 10 2 1 6
BITMAP
FFC0
FFC0
ENDCHAR
STARTCHAR slashdiv.uni2215
ENCODING 8725
SWIDTH 568 0
DWIDTH 12 0
BBX 10 17 1 -2
BITMAP
00C0
0180
0180
0300
0300
0600
0600
0C00
0C00
1800
1800
3000
3000
6000
6000
C000
C000
ENDCHAR
STARTCHAR bulletop.uni2219
ENCODING 8729
SWIDTH 568 0
DWIDTH 12 0
BBX 3 4 4 5
BITMAP
E000
E000
E000
E000
ENDCHAR
STARTCHAR radical.uni221A
ENCODING 8730
SWIDTH 568 0
DWIDTH 12 0
BBX 11 18 0 0
BITMAP
0060
0060
00C0
00C0
00C0
00C0
0180
0180
E180
F300
3300
3300
1B00
1E00
1E00
0E00
0C00
0C00
ENDCHAR
STARTCHAR infinity.uni221E
ENCODING 8734
SWIDTH 568 0
DWIDTH 12 0
BBX 12 8 0 3
BITMAP
39C0
7FE0
CF30
C630
C630
CF30
7FE0
39C0
ENDCHAR
STARTCHAR integral.uni222B
ENCODING 8747
SWIDTH 568 0
DWIDTH 12 0
BBX 11 20 1 -4
BITMAP
01C0
03E0
0660
0600
0600
0E00
0E00
0E00
0E00
0E00
0E00
0E00
0E00
0E00
0E00
0C00
0C00
CC00
F800
7000
ENDCHAR
STARTCHAR approxequal.uni2248
ENCODING 8776
SWIDTH 568 0
DWIDTH 12 0
BBX 10 7 1 3
BITMAP
7840
FFC0
8780
0000
7840
FFC0
8780
ENDCHAR
STARTCHAR notequal.uni2260
ENCODING 8800
SWIDTH 568 0
DWIDTH 12 0
BBX 10 12 1 0
BITMAP
0080
01C0
0380
FFC0
FFC0
0E00
1C00
FFC0
FFC0
7000
E000
4000
ENDCHAR
STARTCHAR lessequal.uni2264
ENCODING 8804
SWIDTH 568 0
DWIDTH 12 0
BBX 10 12 1 0
BITMAP
00C0
07C0
3FC0
FC00
E000
FC00
1FC0
03C0
0040
0000
FFC0
FFC0
ENDCHAR
STARTCHAR greaterequal.uni2265
ENCODING 8805
SWIDTH 568 0
DWIDTH 12 0
BBX 10 12 1 0
BITMAP
C000
F800
FF00
0FC0
01C0
0FC0
FE00
F000
8000
0000
FFC0
FFC0
ENDCHAR
STARTCHAR lozenge.uni25CA
ENCODING 9674
SWIDTH 568 0
DWIDTH 12 0
BBX 10 18 1 -3
BITMAP
0C00
0C00
1200
1200
2100
2100
4080
4080
8040
8040
4080
4080
2100
2100
1200
1200
0C00
0C00
ENDCHAR
STARTCHAR fi.uniFB01
ENCODING 64257
SWIDTH 568 0
DWIDTH 12 0
BBX 11 16 0 0
BITMAP
1EE0
3EE0
70E0
7000
7000
FFE0
FFE0
70E0
70E0
70E0
70E0
70E0
70E0
70E0
70E0
70E0
ENDCHAR
STARTCHAR fl.uniFB02
ENCODING 64258
SWIDTH 568 0
DWIDTH 12 0
BBX 11 16 0 0
BITMAP
1FE0
3FE0
70E0
70E0
70E0
FEE0
FEE0
70E0
70E0
70E0
70E0
70E0
70E0
70E0
70E0
70E0
ENDCHAR
STARTCHAR arrowleft.uni2190
ENCODING 8592
SWIDTH 568 0
DWIDTH 12 0
BBX 12 11 0 1
BITMAP
0600
0C00
1C00
3800
7FF0
FFF0
7FF0
3800
1C00
0C00
0600
ENDCHAR
STARTCHAR arrowup.uni2191
ENCODING 8593
SWIDTH 568 0
DWIDTH 12 0
BBX 11 19 0 -4
BITMAP
0400
0E00
1F00
3F80
7FC0
EEE0
8E20
0E00
0E00
0E00
0E00
0E00
0E00
0E00
0E00
0E00
0E00
0E00
0E00
ENDCHAR
STARTCHAR arrowright.uni2192
ENCODING 8594
SWIDTH 568 0
DWIDTH 12 0
BBX 12 11 0 1
BITMAP
0600
0300
0380
01C0
FFE0
FFF0
FFE0
01C0
0380
0300
0600
ENDCHAR
STARTCHAR arrowdown.uni2193
ENCODING 8595
SWIDTH 568 0
DWIDTH 12 0
BBX 11 19 0 -4
BITMAP
0E00
0E00
0E00
0E00
0E00
0E00
0E00
0E00
0E00
0E00
0E00
0E00
8E20
EEE0
7FC0
3F80
1F00
0E00
0400
ENDCHAR
STARTCHAR uparrtipleft.uni21B0
ENCODING 8624
SWIDTH 713 0
DWIDTH 12 0
BBX 12 16 0 0
BITMAP
0600
0C00
1C00
3800
7FE0
FFF0
7FF0
3870
1C70
0C70
0670
0070
0070
0070
0070
0070
ENDCHAR
STARTCHAR uparrtipright.uni21B1
ENCODING 8625
SWIDTH 713 0
DWIDTH 12 0
BBX 12 16 0 0
BITMAP
0600
0300
0380
01C0
7FE0
FFF0
FFE0
E1C0
E380
E300
E600
E000
E000
E000
E000
E000
ENDCHAR
STARTCHAR carriagereturn.uni21B5
ENCODING 8629
SWIDTH 568 0
DWIDTH 12 0
BBX 12 16 0 -1
BITMAP
0070
0070
0070
0070
0070
0670
0C70
1C70
3870
7FF0
FFF0
7FE0
3800
1C00
0C00
0600
ENDCHAR
STARTCHAR mesangle.uni2221
ENCODING 8737
SWIDTH 568 0
DWIDTH 12 0
BBX 12 14 0 0
BITMAP
00E0
01C0
0180
0380
0700
0700
0E00
0E00
1F00
3980
3980
7180
7FF0
FFF0
ENDCHAR
STARTCHAR eqminus.uni23BB
ENCODING 9147
SWIDTH 713 0
DWIDTH 12 0
BBX 10 2 1 10
BITMAP
FFC0
FFC0
ENDCHAR
STARTCHAR lf.uni240A
ENCODING 9226
SWIDTH 568 0
DWIDTH 12 0
BBX 11 17 0 -1
BITMAP
C000
C000
C000
C000
C000
C000
F800
F800
03E0
03E0
0300
0300
03E0
03E0
0300
0300
0300
ENDCHAR
STARTCHAR esc.uni241B
ENCODING 9243
SWIDTH 568 0
DWIDTH 12 0
BBX 12 19 0 -3
BITMAP
F000
F000
C000
F000
C000
E700
EF00
0C00
0600
0600
0300
0F00
0E70
00F0
00C0
00C0
00C0
00F0
0070
ENDCHAR
STARTCHAR bdlvr.uni251C
ENCODING 9500
SWIDTH 568 0
DWIDTH 12 0
BBX 7 19 3 -3
BITMAP
C000
C000
C000
C000
C000
C000
C000
C000
C000
FE00
FE00
C000
C000
C000
C000
C000
C000
C000
C000
ENDCHAR
STARTCHAR block.uni2588
ENCODING 9608
SWIDTH 713 0
DWIDTH 12 0
BBX 12 21 0 -4
BITMAP
FFF0
FFF0
FFF0
FFF0
FFF0
FFF0
FFF0
FFF0
FFF0
FFF0
FFF0
FFF0
FFF0
FFF0
FFF0
FFF0
FFF0
FFF0
FFF0
FFF0
FFF0
ENDCHAR
STARTCHAR shade.uni2592
ENCODING 9618
SWIDTH 568 0
DWIDTH 12 0
BBX 12 21 0 -4
BITMAP
5550
0000
AAA0
0000
5550
0000
AAA0
0000
5550
0000
AAA0
0000
5550
0000
AAA0
0000
5550
0000
AAA0
0000
5550
ENDCHAR
STARTCHAR filledbox.uni25A0
ENCODING 9632
SWIDTH 568 0
DWIDTH 12 0
BBX 8 9 2 2
BITMAP
FF00
FF00
FF00
FF00
FF00
FF00
FF00
FF00
FF00
ENDCHAR
STARTCHAR triagup.uni25B2
ENCODING 9650
SWIDTH 568 0
DWIDTH 12 0
BBX 12 11 0 0
BITMAP
0600
0600
0F00
0F00
1F80
1F80
3FC0
3FC0
7FE0
7FE0
FFF0
ENDCHAR
STARTCHAR triagright.uni25B6
ENCODING 9654
SWIDTH 568 0
DWIDTH 12 0
BBX 11 12 1 1
BITMAP
8000
E000
F800
FE00
FF80
FFE0
FFE0
FF80
FE00
F800
E000
8000
ENDCHAR
STARTCHAR triagdn.uni25BC
ENCODING 9660
SWIDTH 568 0
DWIDTH 12 0
BBX 12 11 0 1
BITMAP
FFF0
7FE0
7FE0
3FC0
3FC0
1F80
1F80
0F00
0F00
0600
0600
ENDCHAR
STARTCHAR boldparleft.uni27EA
ENCODING 10218
SWIDTH 713 0
DWIDTH 12 0
BBX 6 19 3 -3
BITMAP
1C00
3800
3800
7800
7800
7000
F000
F000
F000
F000
F000
F000
F000
7000
7800
7800
3800
3800
1C00
ENDCHAR
STARTCHAR boldparright.uni27EB
ENCODING 10219
SWIDTH 713 0
DWIDTH 12 0
BBX 6 19 3 -3
BITMAP
E000
7000
7000
7800
7800
3800
3C00
3C00
3C00
3C00
3C00
3C00
3C00
3800
7800
7800
7000
7000
E000
ENDCHAR
STARTCHAR Sigma.uni03A3
ENCODING 931
SWIDTH 568 0
DWIDTH 12 0
BBX 10 15 1 0
BITMAP
FF80
FF80
E000
7000
3800
3800
1C00
0E00
1C00
3800
3800
7000
E000
FFC0
FFC0
ENDCHAR
STARTCHAR theta.uni03B8
ENCODING 952
SWIDTH 713 0
DWIDTH 12 0
BBX 10 15 1 0
BITMAP
1E00
3F00
7380
6180
E1C0
E1C0
FFC0
FFC0
E1C0
E1C0
E1C0
6180
7380
3F00
1E00
ENDCHAR
STARTCHAR mu.uni03BC
ENCODING 956
SWIDTH 568 0
DWIDTH 12 0
BBX 11 15 1 -4
BITMAP
E1C0
E1C0
E1C0
E1C0
E1C0
E1C0
E1C0
E1C0
F3C0
FFE0
FEE0
E000
E000
E000
E000
ENDCHAR
STARTCHAR sigma.uni03C3
ENCODING 963
SWIDTH 714 0
DWIDTH 12 0
BBX 10 11 1 0
BITMAP
1FC0
7FC0
7700
E380
E1C0
E1C0
E1C0
E1C0
7380
7F80
1E00
ENDCHAR
STARTCHAR exponent.uni1D07
ENCODING 7431
SWIDTH 568 0
DWIDTH 12 0
BBX 8 12 2 1
BITMAP
FF00
FF00
E000
E000
E000
FE00
FE00
E000
E000
E000
FF00
FF00
ENDCHAR
STARTCHAR y-hat.uni0177
ENCODING 375
SWIDTH 568 0
DWIDTH 12 0
BBX 10 21 1 -4
BITMAP
1C00
3E00
3600
6300
0000
0000
E1C0
71C0
7380
7380
3B80
3B00
3F00
1F00
1E00
0E00
0E00
1C00
1C00
7800
7800
ENDCHAR
STARTCHAR y-bar.uni0233
ENCODING 563
SWIDTH 568 0
DWIDTH 12 0
BBX 10 20 1 -4
BITMAP
7F80
7F80
0000
0000
0000
E1C0
71C0
7380
7380
3B80
3B00
3F00
1F00
1E00
0E00
0E00
1C00
1C00
7800
7800
ENDCHAR
STARTCHAR x-hat.uni0302
ENCODING 770
SWIDTH 568 0
DWIDTH 12 0
BBX 10 17 1 0
BITMAP
0C00
1E00
3F00
6180
0000
0000
F3C0
7380
3300
3F00
1E00
1E00
1E00
3F00
3300
7380
F3C0
ENDCHAR
STARTCHAR x-bar.uni0304
ENCODING 772
SWIDTH 568 0
DWIDTH 12 0
BBX 10 16 1 0
BITMAP
7F80
7F80
0000
0000
0000
F3C0
7380
3300
3F00
1E00
1E00
1E00
3F00
3300
7380
F3C0
ENDCHAR
STARTCHAR xsuperior.uni02E3
ENCODING 739
SWIDTH 714 0
DWIDTH 12 0
BBX 10 9 1 7
BITMAP
F3C0
7380
3F00
1E00
0C00
1E00
3F00
7380
F3C0
ENDCHAR
STARTCHAR triagleft.uni25C0
ENCODING 9664
SWIDTH 568 0
DWIDTH 12 0
BBX 11 12 0 1
BITMAP
0020
00E0
03E0
0FE0
3FE0
FFE0
FFE0
3FE0
0FE0
03E0
00E0
0020
ENDCHAR
STARTCHAR germandblS.uni1E9E
ENCODING 7838
SWIDTH 568 0
DWIDTH 12 0
BBX 10 16 1 0
BITMAP
0FC0
3FC0
7980
7180
E300
E300
E600
E600
EF00
E780
E3C0
E1C0
E1C0
E9C0
EF80
E700
ENDCHAR
STARTCHAR Gamma.uni0393
ENCODING 915
SWIDTH 568 0
DWIDTH 12 0
BBX 10 15 1 0
BITMAP
FFC0
FFC0
E000
E000
E000
E000
E000
E000
E000
E000
E000
E000
E000
E000
E000
ENDCHAR
ENDFONT
